<svg width="15" height="15" viewBox="0 0 15 15" fill="none" xmlns="http://www.w3.org/2000/svg">
<path d="M13.8865 15C13.7402 15.0001 13.5954 14.9713 13.4602 14.9154C13.325 14.8595 13.2022 14.7775 13.0988 14.6741L0.340004 1.91477C0.233633 1.81204 0.148787 1.68915 0.0904183 1.55327C0.0320495 1.41739 0.00132708 1.27125 4.20511e-05 1.12338C-0.00124297 0.975501 0.0269354 0.82885 0.0829341 0.691981C0.138933 0.555111 0.22163 0.430764 0.3262 0.326196C0.43077 0.221627 0.555119 0.138932 0.69199 0.082934C0.828862 0.0269362 0.975515 -0.00124296 1.12339 4.20488e-05C1.27127 0.00132705 1.41741 0.0320501 1.55329 0.090418C1.68917 0.148786 1.81206 0.23363 1.9148 0.34L14.6743 13.0993C14.8299 13.2551 14.9358 13.4535 14.9787 13.6695C15.0216 13.8855 14.9994 14.1093 14.9151 14.3127C14.8308 14.5161 14.6881 14.69 14.505 14.8123C14.3219 14.9346 14.1067 15 13.8865 15Z" fill="white"/>
<path d="M1.11378 15C0.89344 14.9998 0.678103 14.9343 0.494963 14.8118C0.311823 14.6893 0.169093 14.5153 0.0848009 14.3117C0.000508505 14.1082 -0.0215653 13.8842 0.0213668 13.6681C0.0642988 13.452 0.170311 13.2535 0.326015 13.0976L13.0966 0.326704C13.3057 0.117589 13.5892 6.9708e-05 13.8849 3.10013e-08C14.1806 -6.9646e-05 14.4642 0.117315 14.6733 0.326332C14.8824 0.53535 14.9999 0.818876 15 1.11454C15.0001 1.41021 14.8827 1.69379 14.6737 1.9029L1.90228 14.6738C1.79871 14.7773 1.67577 14.8593 1.54048 14.9153C1.40519 14.9713 1.26019 15.0001 1.11378 15Z" fill="white"/>
</svg>
