<svg width="101" height="101" viewBox="0 0 101 101" fill="none" xmlns="http://www.w3.org/2000/svg">
<path d="M50.6972 91.0302C28.2089 91.0302 9.9165 72.7358 9.9165 50.2495C9.9165 27.7632 28.2089 9.46875 50.6972 9.46875C73.1855 9.46875 91.478 27.7632 91.478 50.2495C91.478 72.7358 73.1855 91.0302 50.6972 91.0302ZM50.6972 15.3867C31.4737 15.3867 15.8345 31.0259 15.8345 50.2495C15.8345 69.473 31.4737 85.1122 50.6972 85.1122C69.9208 85.1122 85.56 69.473 85.56 50.2495C85.56 31.0259 69.9208 15.3867 50.6972 15.3867Z" fill="#363636"/>
<path d="M67.6464 70.621C67.2578 70.6212 66.8729 70.5448 66.5138 70.3962C66.1546 70.2476 65.8283 70.0297 65.5534 69.755L31.6553 35.8549C31.3727 35.582 31.1473 35.2555 30.9922 34.8945C30.8371 34.5334 30.7555 34.1452 30.7521 33.7523C30.7487 33.3594 30.8235 32.9697 30.9723 32.6061C31.1211 32.2425 31.3408 31.9121 31.6186 31.6342C31.8964 31.3564 32.2268 31.1367 32.5905 30.9879C32.9541 30.8391 33.3438 30.7643 33.7366 30.7677C34.1295 30.7711 34.5178 30.8527 34.8788 31.0078C35.2398 31.1629 35.5663 31.3883 35.8393 31.6709L69.7394 65.571C70.1528 65.9849 70.4342 66.5121 70.5481 67.086C70.662 67.6598 70.6033 68.2545 70.3793 68.7949C70.1553 69.3354 69.7761 69.7973 69.2897 70.1223C68.8033 70.4474 68.2314 70.6209 67.6464 70.621Z" fill="#363636"/>
<path d="M33.7464 70.621C33.1616 70.6205 32.59 70.4467 32.1039 70.1215C31.6177 69.7964 31.2389 69.3344 31.0151 68.7941C30.7914 68.2537 30.7328 67.6591 30.8468 67.0855C30.9607 66.5119 31.2421 65.9849 31.6554 65.571L65.5535 31.6709C66.1084 31.1158 66.861 30.8039 67.6458 30.8037C68.4307 30.8035 69.1834 31.1151 69.7385 31.67C70.2936 32.2248 70.6056 32.9774 70.6058 33.7622C70.6059 34.5471 70.2943 35.2999 69.7395 35.8549L35.8394 69.755C35.5645 70.0298 35.2382 70.2477 34.8791 70.3962C34.5199 70.5448 34.1351 70.6212 33.7464 70.621Z" fill="#363636"/>
</svg>
