<svg width="29" height="19" viewBox="0 0 29 19" fill="none" xmlns="http://www.w3.org/2000/svg">
<path d="M27.3863 0H6.4207C5.70001 0 5.11035 0.589657 5.11035 1.31035V6.06037C5.4707 5.96209 5.89656 5.89657 6.28967 5.89657C6.55174 5.89657 6.81381 5.92933 7.07588 5.96209V1.96552H26.7311V14.4138H15.6259L13.7587 16.3794H27.3863C28.107 16.3794 28.6966 15.7897 28.6966 15.069V1.31035C28.6966 0.589657 28.107 0 27.3863 0Z" fill="#005CB3"/>
<path d="M6.32246 12.7758C7.86212 12.7758 9.10696 11.5309 9.10696 9.99128C9.10696 8.45162 7.86212 7.20679 6.32246 7.20679C4.7828 7.20679 3.53797 8.45162 3.53797 9.99128C3.50521 11.5309 4.7828 12.7758 6.32246 12.7758Z" fill="#005CB3"/>
<path d="M17.0345 9.53283C16.6087 8.87765 15.757 8.71386 15.1018 9.10696C14.9707 9.17248 14.9052 9.30351 14.8397 9.36903L10.0569 14.3484C9.59831 14.1191 9.10693 13.9225 8.61555 13.7587C7.8621 13.6277 7.07589 13.4639 6.32244 13.4639C5.56899 13.4639 4.78278 13.5949 4.02933 13.8242C2.91553 14.1191 1.93277 14.6759 1.1138 15.3639C0.917245 15.5604 0.753451 15.8553 0.687934 16.1173L0 19.0001H9.79486V18.9673L12.5794 15.7242L16.8708 11.2035C17.2639 10.8104 17.3949 10.057 17.0345 9.53283Z" fill="#005CB3"/>
</svg>
