<svg width="343" height="111" viewBox="0 0 343 111" fill="none" xmlns="http://www.w3.org/2000/svg">
<path d="M114.842 85.3393L132.114 36.2787L149.353 85.3393H144.572L139.952 72.171H124.242L119.59 85.3393H114.842ZM138.358 67.6538L132.114 49.8038L125.836 67.6538H138.358Z" fill="#005CB3"/>
<path d="M186.763 41.9369H169.069V59.1349H186.373V63.6536H169.069V80.8516H186.763V85.3393H164.547V37.4506H186.763V41.9369Z" fill="#005CB3"/>
<path d="M208.628 37.386V80.853H229.412V85.3394H204.106V37.386H208.628Z" fill="#005CB3"/>
<path d="M251.245 37.4506H246.724V85.3393H251.245V37.4506Z" fill="#005CB3"/>
<path d="M300.624 37.4506L286.964 61.0542L301.016 85.3379H295.812L284.362 65.5406L272.945 85.3379H267.741L281.793 61.0542L268.13 37.4506H273.334L284.362 56.5664L295.42 37.4506H300.624Z" fill="#005CB3"/>
<path d="M313.635 48.4325L328.705 36.2802V85.3393H321.475V50.5106L313.635 56.8433V48.4325Z" fill="#005CB3"/>
<path d="M61.9072 74.4178C61.9072 88.7241 50.3042 100.32 35.991 100.32C21.6792 100.32 10.0776 88.7241 10.0776 74.4178C10.0776 60.1114 21.6792 48.514 35.991 48.514C50.3042 48.514 61.9072 60.1114 61.9072 74.4178Z" fill="#F39911"/>
<path d="M95.2935 54.7441C95.2935 69.6434 83.2084 81.7227 68.3019 81.7227C53.3941 81.7227 41.3118 69.6434 41.3118 54.7441C41.3118 39.8448 53.3941 27.7655 68.3019 27.7655C83.2084 27.7655 95.2935 39.8448 95.2935 54.7441Z" fill="#005CB3"/>
<path d="M53.5445 37.5265C53.5445 44.2806 48.0677 49.7547 41.3118 49.7547C34.5544 49.7547 29.0776 44.2806 29.0776 37.5265C29.0776 30.7738 34.5544 25.2982 41.3118 25.2982C48.0677 25.2982 53.5445 30.7738 53.5445 37.5265Z" fill="#21BAFE"/>
<path d="M56.1677 23.3114C56.1677 24.7586 54.9939 25.9333 53.5446 25.9333C52.0966 25.9333 50.9229 24.7586 50.9229 23.3114C50.9229 21.8642 52.0966 20.6896 53.5446 20.6896C54.9939 20.6896 56.1677 21.8642 56.1677 23.3114Z" fill="#F39911"/>
<path d="M83.3997 89.726C83.3997 92.5206 81.1337 94.7856 78.3362 94.7856C75.5402 94.7856 73.2742 92.522 73.2742 89.726C73.2742 86.9299 75.5402 84.6649 78.3362 84.6649C81.1337 84.6663 83.3997 86.9313 83.3997 89.726Z" fill="#005CB3"/>
<path d="M68.9754 81.7213C68.9754 88.3799 63.5746 93.7782 56.9142 93.7782C50.2524 93.7782 44.8516 88.3799 44.8516 81.7213C44.8516 75.0641 50.2524 69.6659 56.9142 69.6659C63.576 69.6659 68.9754 75.0641 68.9754 81.7213Z" fill="#21BAFE"/>
<path d="M23.6064 100.147L50.5277 25.8855L76.0166 100.632L68.7545 100.565L61.9269 80.5031L38.0687 80.2825L30.8193 100.213L23.6064 100.147ZM59.5694 73.6197L50.338 46.4261L40.5526 73.4441L59.5694 73.6197Z" fill="white"/>
</svg>
