<svg width="30" height="12" viewBox="0 0 30 12" fill="none" xmlns="http://www.w3.org/2000/svg">
<rect width="30" height="12" rx="6" fill="#005CB3"/>
<path d="M9.5 3L10.2788 4.42805L11.8776 4.72746L10.7601 5.90945L10.9695 7.52254L9.5 6.825L8.03054 7.52254L8.23985 5.90945L7.12236 4.72746L8.72118 4.42805L9.5 3Z" fill="#E4E4E4"/>
<path d="M15.5 3L16.2788 4.42805L17.8776 4.72746L16.7601 5.90945L16.9695 7.52254L15.5 6.825L14.0305 7.52254L14.2399 5.90945L13.1224 4.72746L14.7212 4.42805L15.5 3Z" fill="#E4E4E4"/>
<path d="M21.5 3L22.2788 4.42805L23.8776 4.72746L22.7601 5.90945L22.9695 7.52254L21.5 6.825L20.0305 7.52254L20.2399 5.90945L19.1224 4.72746L20.7212 4.42805L21.5 3Z" fill="#E4E4E4"/>
</svg>
