<svg width="120" height="120" viewBox="0 0 120 120" fill="none" xmlns="http://www.w3.org/2000/svg">
<path d="M51.45 19.3L9.09998 90C8.22682 91.5122 7.76482 93.2265 7.75993 94.9726C7.75504 96.7187 8.20744 98.4357 9.07211 99.9527C9.93679 101.47 11.1836 102.734 12.6885 103.619C14.1934 104.505 15.904 104.981 17.65 105H102.35C104.096 104.981 105.807 104.505 107.311 103.619C108.816 102.734 110.063 101.47 110.928 99.9527C111.793 98.4357 112.245 96.7187 112.24 94.9726C112.235 93.2265 111.773 91.5122 110.9 90L68.55 19.3C67.6586 17.8306 66.4036 16.6156 64.906 15.7725C63.4083 14.9293 61.7187 14.4863 60 14.4863C58.2813 14.4863 56.5916 14.9293 55.094 15.7725C53.5964 16.6156 52.3413 17.8306 51.45 19.3V19.3Z" stroke="white" stroke-width="4" stroke-linecap="round" stroke-linejoin="round"/>
<path d="M60 45V78" stroke="white" stroke-width="4" stroke-linecap="round" stroke-linejoin="round"/>
<path d="M60 85H60.05" stroke="white" stroke-width="4" stroke-linecap="round" stroke-linejoin="round"/>
</svg>
