<svg width="21" height="21" viewBox="0 0 21 21" fill="none" xmlns="http://www.w3.org/2000/svg">
<path d="M8.06931 0.711243C6.93177 0.711243 5.99435 1.64862 5.99435 2.78621V3.47786C5.99435 3.73332 6.2 3.93897 6.45545 3.93897H6.91655C7.17201 3.93897 7.37766 3.73332 7.37766 3.47786V2.78621C7.37766 2.39109 7.67419 2.09455 8.06931 2.09455H15.6793L15.6865 5.08452C15.6865 5.46507 15.9958 5.77334 16.3764 5.77441L19.3663 5.78178V18.9241C19.3663 19.3192 19.0698 19.6157 18.6747 19.6157H8.0693C7.67414 19.6157 7.37765 19.3192 7.37765 18.9241L7.37766 11.3168C7.37766 11.0614 7.17201 10.8557 6.91655 10.8557H6.45545C6.2 10.8557 5.99435 11.0614 5.99435 11.3168V18.925C5.99435 20.0626 6.93172 21 8.06931 21H18.6747C19.8122 21 20.7497 20.0626 20.7497 18.925V4.86768C20.7496 4.68425 20.6767 4.50833 20.547 4.37863L17.0824 0.914045C16.9528 0.784337 16.7769 0.711486 16.5934 0.71144H8.06931V0.711243ZM0.922207 4.86118C0.4113 4.86118 0 5.27248 0 5.78338V9.01114C0 9.52204 0.4113 9.93334 0.922207 9.93334H12.4498C12.9607 9.93334 13.372 9.52204 13.372 9.01114V5.78338C13.372 5.27248 12.9607 4.86118 12.4498 4.86118H0.922207V4.86118ZM2.17403 6.22738C2.35427 6.22738 2.5267 6.26935 2.71079 6.34986C2.7568 6.26566 2.80203 6.23191 2.8864 6.23191C3.00528 6.23191 3.05571 6.28058 3.05571 6.44169L3.0594 6.92984C3.0594 7.0909 3.02122 7.14865 2.86397 7.14865C2.74892 7.14865 2.70663 7.09014 2.67214 6.97127C2.61078 6.75266 2.49616 6.63805 2.22004 6.63805C1.84039 6.63805 1.62565 6.8987 1.62565 7.39725C1.62565 7.89196 1.84016 8.15645 2.22365 8.15645C2.57646 8.15645 2.78709 7.89615 2.95583 7.89615C3.0517 7.89615 3.12874 7.98867 3.12874 8.11142C3.12874 8.3108 2.70264 8.57072 2.18492 8.57072C1.52532 8.57072 1.0889 8.08756 1.0889 7.39725C1.0889 6.74151 1.53368 6.22738 2.17411 6.22738H2.17403ZM9.01854 6.22738C9.19111 6.22738 9.34739 6.26196 9.50846 6.33094C9.55065 6.23868 9.59674 6.22738 9.70029 6.22738C9.82304 6.22738 9.8542 6.26611 9.85789 6.42731L9.86509 6.78752V6.80643C9.86509 6.94836 9.8199 7.00636 9.67416 7.00636C9.52077 7.00636 9.50494 6.92188 9.45892 6.82984C9.38222 6.68026 9.2483 6.59572 9.06806 6.59572C8.83414 6.59572 8.69251 6.71879 8.69251 6.8722C8.69251 7.0678 8.90678 7.08706 9.29411 7.16757C9.75814 7.26343 9.97676 7.47053 9.97676 7.85024C9.97676 8.31038 9.65457 8.56712 9.07166 8.56712C8.87991 8.56712 8.70347 8.54727 8.50789 8.47433C8.4657 8.547 8.41575 8.56712 8.33138 8.56712C8.17798 8.56712 8.11982 8.52086 8.11613 8.36358L8.10534 7.92229V7.90341C8.10534 7.7423 8.15885 7.6809 8.31609 7.6809C8.46181 7.6809 8.48121 7.78806 8.55024 7.92229C8.64995 8.11789 8.81857 8.21048 9.07168 8.21048C9.29795 8.21048 9.43642 8.11487 9.43642 7.9385C9.43642 7.69688 9.22154 7.69576 8.7997 7.58454C8.37786 7.47332 8.15488 7.33205 8.15488 6.95238C8.15488 6.52664 8.5085 6.22738 9.01855 6.22738H9.01854ZM11.325 6.22738C11.4975 6.22738 11.6547 6.26196 11.8158 6.33094C11.858 6.23868 11.9032 6.22738 12.0067 6.22738C12.1295 6.22738 12.1615 6.26611 12.1652 6.42731L12.1724 6.78752V6.80643C12.1724 6.94836 12.1263 7.00636 11.9806 7.00636C11.8272 7.00636 11.8113 6.92188 11.7653 6.82984C11.6886 6.68026 11.5547 6.59572 11.3745 6.59572C11.1405 6.59572 10.9989 6.71879 10.9989 6.8722C10.9989 7.0678 11.2141 7.08706 11.6014 7.16757C12.0655 7.26343 12.2832 7.47053 12.2832 7.85024C12.2832 8.31038 11.9619 8.56712 11.379 8.56712C11.1872 8.56712 11.0108 8.54727 10.8152 8.47433C10.773 8.547 10.7231 8.56712 10.6387 8.56712C10.4853 8.56712 10.4271 8.52086 10.4235 8.36358L10.4117 7.92229V7.90341C10.4117 7.7423 10.4652 7.6809 10.6225 7.6809C10.7682 7.6809 10.7885 7.78806 10.8575 7.92229C10.9572 8.11789 11.1259 8.21048 11.379 8.21048C11.6052 8.21048 11.7428 8.11487 11.7428 7.9385C11.7428 7.69688 11.5279 7.69576 11.1061 7.58454C10.6843 7.47332 10.4622 7.33205 10.4622 6.95238C10.4622 6.52664 10.8149 6.22738 11.3249 6.22738H11.325ZM3.58706 6.28862H4.38859C4.54199 6.28862 4.61824 6.34712 4.61824 6.49665C4.61824 6.65006 4.54199 6.70286 4.38859 6.70286H4.22378V8.09881H5.07484V7.76559C5.07484 7.60452 5.12881 7.52783 5.27838 7.52783C5.43178 7.52783 5.48191 7.6084 5.48191 7.76559V8.34017C5.48191 8.47421 5.44373 8.50948 5.28648 8.50948H3.58706C3.43367 8.50948 3.36101 8.45575 3.36101 8.30234C3.36101 8.14898 3.43367 8.09881 3.58706 8.09881H3.75187V6.70286H3.58706C3.43367 6.70286 3.36101 6.65006 3.36101 6.49665C3.36101 6.34712 3.43367 6.28862 3.58706 6.28862V6.28862ZM6.15105 6.28862H6.85351C7.02225 6.28862 7.03691 6.33518 7.08677 6.47324L7.68116 8.09881H7.71177C7.84599 8.09881 7.91891 8.16811 7.91891 8.30234C7.91891 8.45958 7.83838 8.50948 7.68115 8.50948H7.11738C6.96015 8.50948 6.87962 8.45958 6.87962 8.30234C6.87962 8.14524 6.96015 8.09881 7.11738 8.09881H7.18312L7.10568 7.88086H6.29694L6.21679 8.09881H6.28073C6.43796 8.09881 6.51849 8.14511 6.51849 8.30234C6.51849 8.45958 6.43796 8.50948 6.28073 8.50948H5.79801C5.64078 8.50948 5.56116 8.45958 5.56116 8.30234C5.56116 8.16811 5.63317 8.09881 5.76739 8.09881H5.79801L6.30054 6.70286H6.14654C5.9893 6.70286 5.91328 6.65393 5.91328 6.49665C5.91328 6.34324 5.98997 6.28862 6.15104 6.28862H6.15105ZM6.69951 6.70286L6.42663 7.49268H6.97149L6.69951 6.70286V6.70286ZM8.29987 17.311C8.04441 17.311 7.83876 17.5167 7.83876 17.7721V18.2332C7.83876 18.4887 8.04441 18.6943 8.29987 18.6943H9.68318C9.93863 18.6943 10.1443 18.4887 10.1443 18.2332V17.7721C10.1443 17.5167 9.93863 17.311 9.68318 17.311H8.29987ZM11.0665 17.311C10.811 17.311 10.6054 17.5167 10.6054 17.7721V18.2332C10.6054 18.4887 10.811 18.6943 11.0665 18.6943H12.4498C12.7052 18.6943 12.9109 18.4887 12.9109 18.2332V17.7721C12.9109 17.5167 12.7052 17.311 12.4498 17.311H11.0665ZM13.8331 17.311C13.5777 17.311 13.372 17.5167 13.372 17.7721V18.2332C13.372 18.4887 13.5777 18.6943 13.8331 18.6943H15.2164C15.4719 18.6943 15.6775 18.4887 15.6775 18.2332V17.7721C15.6775 17.5167 15.4719 17.311 15.2164 17.311H13.8331ZM16.5997 17.311C16.3443 17.311 16.1386 17.5167 16.1386 17.7721V18.2332C16.1386 18.4887 16.3443 18.6943 16.5997 18.6943H17.983C18.2385 18.6943 18.4441 18.4887 18.4441 18.2332V17.7721C18.4441 17.5167 18.2385 17.311 17.983 17.311H16.5997Z" fill="#005CB3"/>
</svg>
